HIERARCHY
ROOT Hips
{
	OFFSET 0.00000 0.00000 0.00000
	CHANNELS 6 Xposition Yposition Zposition Zrotation Yrotation Xrotation 
	JOINT LHipJoint
	{
		OFFSET 0 0 0
		CHANNELS 3 Zrotation Yrotation Xrotation
		JOINT LeftHip
		{
			OFFSET 3.13874 -1.57224 1.49786
			CHANNELS 3 Zrotation Yrotation Xrotation
			JOINT LeftKnee
			{
				OFFSET 2.10955 -5.79594 0.00000
				CHANNELS 3 Zrotation Yrotation Xrotation
				JOINT LeftAnkle
				{
					OFFSET 2.41843 -6.64458 0.00000
					CHANNELS 3 Zrotation Yrotation Xrotation
					JOINT LeftToe
					{
						OFFSET 0.04713 -0.12948 1.66229
						CHANNELS 3 Zrotation Yrotation Xrotation
						End Site
						{
							OFFSET 0.00000 -0.00000 0.85167
						}
					}
				}
			}
		}
	}
	JOINT RHipJoint
	{
		OFFSET 0 0 0
		CHANNELS 3 Zrotation Yrotation Xrotation
		JOINT RightHip
		{
			OFFSET -3.13988 -1.57224 1.49786
			CHANNELS 3 Zrotation Yrotation Xrotation
			JOINT RightKnee
			{
				OFFSET -2.15006 -5.90725 0.00000
				CHANNELS 3 Zrotation Yrotation Xrotation
				JOINT RightAnkle
				{
					OFFSET -2.34496 -6.44273 0.00000
					CHANNELS 3 Zrotation Yrotation Xrotation
					JOINT RightToe
					{
						OFFSET -0.08699 -0.23900 1.55223
						CHANNELS 3 Zrotation Yrotation Xrotation
						End Site
						{
							OFFSET -0.00000 -0.00000 0.80281
						}
					}
				}
			}
		}
	}
	JOINT lowerback
	{
		OFFSET 0 0 0
		CHANNELS 3 Zrotation Yrotation Xrotation
		JOINT Chest
		{
			OFFSET 0.01292 1.96517 -0.16495
			CHANNELS 3 Zrotation Yrotation Xrotation
			JOINT Chest2
			{
				OFFSET 0.02122 1.88666 0.19706
				CHANNELS 3 Zrotation Yrotation Xrotation
				JOINT lowerneck
				{
					OFFSET 0 0 0
					CHANNELS 3 Zrotation Yrotation Xrotation
					JOINT Neck
					{
						OFFSET -0.01683 1.81591 0.07903
						CHANNELS 3 Zrotation Yrotation Xrotation
						JOINT Head
						{
							OFFSET 0.00815 1.74013 -0.47700
							CHANNELS 3 Zrotation Yrotation Xrotation
							End Site
							{
								OFFSET -0.00204 1.83225 -0.16933
							}
						}
					}
				}
				JOINT LeftCollar
				{
					OFFSET 0 0 0
					CHANNELS 3 Zrotation Yrotation Xrotation
					JOINT LeftShoulder
					{
						OFFSET 3.38482 1.41533 0.19802
CHANNELS 3 Zrotation Xrotation Yrotation
						JOINT LeftElbow
						{
OFFSET 0 -4.327120 0.000000
CHANNELS 3 Zrotation Xrotation Yrotation
							JOINT LeftWrist
							{
OFFSET 0 -3.285870 -0.000000
CHANNELS 3 Zrotation Xrotation Yrotation
								JOINT lhand
								{
									OFFSET 0 0 0
CHANNELS 3 Zrotation Xrotation Yrotation
									JOINT LFingers
									{
OFFSET 0 -0.433160 -0.000000
CHANNELS 3 Zrotation Xrotation Yrotation
										End Site
										{
OFFSET 0 -0.349220 -0.000000
										}
									}
								}
								JOINT LThumb
								{
OFFSET 0 0.000000 0.000000
CHANNELS 3 Zrotation Xrotation Yrotation
									End Site
									{
OFFSET 0 -0.354560 0.354560
									}
								}
							}
						}
					}
				}
				JOINT RightCollar
				{
					OFFSET 0 0 0
					CHANNELS 3 Zrotation Yrotation Xrotation
					JOINT RightShoulder
					{
						OFFSET -3.09725 1.62858 -0.14144
CHANNELS 3 Zrotation Xrotation Yrotation
						JOINT RightElbow
						{
OFFSET 0 -4.291040 0.000000
CHANNELS 3 Zrotation Xrotation Yrotation
							JOINT RightWrist
							{
OFFSET 0 -3.227200 -0.000000
CHANNELS 3 Zrotation Xrotation Yrotation
								JOINT rhand
								{
									OFFSET 0 0 0
CHANNELS 3 Zrotation Xrotation Yrotation
									JOINT RFingers
									{
OFFSET 0 -0.543620 -0.000000
CHANNELS 3 Zrotation Xrotation Yrotation
										End Site
										{
OFFSET 0 -0.438280 -0.000000
										}
									}
								}
								JOINT RThumb
								{
OFFSET 0 0.000000 0.000000
CHANNELS 3 Zrotation Xrotation Yrotation
									End Site
									{
OFFSET 0 -0.444970 0.444970
									}
								}
							}
						}
					}
				}
			}
		}
	}
}
MOTION
Frames: 7
Frame Time: 0.008333333333333333
-9.644505 15.951940 2.881869 -151.319599 -85.857501 159.166793 0.000000 0.000000 0.000000 -22.228480 -27.046296 -16.923681 1.443132 7.594351 21.488561 0.286109 -8.539779 -10.495902 0.207380 -2.931982 -8.089426 0.000000 0.000000 0.000000 27.684023 -0.441151 12.223701 -0.104055 -2.075813 5.715477 -3.261560 -8.487571 -37.810281 -0.292922 3.453994 -9.547668 -1.107060 3.230431 6.991881 3.125589 4.354189 -9.903665 3.274339 2.282988 -15.282233 -2.779013 -2.558476 -21.547002 -4.297741 -1.742032 30.523747 -1.624557 -1.910298 14.034084 0.000000 0.000000 0.000000 4.348236 23.498977 -7.301240 20.067576 -30.722700 5.566322 33.402281 21.636071 -23.352682 0.000000 0.000000 0.000000 -7.125000 0.000000 0.000000 4.789448 57.261914 -1.439468 0.000000 0.000000 0.000000 -24.659044 -5.004612 41.438253 -32.223958 -42.724701 -12.892641 -35.643034 34.318804 22.112665 0.000000 0.000000 0.000000 7.125000 0.000000 0.000000 -7.544676 56.384743 2.114671
-9.499880 15.919851 2.827077 -156.931167 -84.992295 164.938810 0.000000 0.000000 0.000000 -21.384782 -26.884960 -18.223213 1.542969 7.840657 22.231312 0.315393 -9.090468 -11.063737 0.232489 -3.103197 -8.566240 0.000000 0.000000 0.000000 28.440574 0.790581 12.879687 -0.053047 -1.467613 4.036741 -3.601583 -8.281248 -39.356229 -0.104091 2.065748 -5.687838 -0.854412 3.388567 6.879298 3.001261 4.586600 -9.885073 2.950382 2.352028 -15.166617 -2.400361 -2.315451 -21.458744 -4.415646 -1.501027 30.668548 -1.696774 -1.784800 14.073659 0.000000 0.000000 0.000000 4.663121 23.353884 -8.745784 21.093253 -31.934391 6.100449 33.586270 22.071481 -25.714727 0.000000 0.000000 0.000000 -7.125000 0.000000 0.000000 4.543883 59.954920 -1.660333 0.000000 0.000000 0.000000 -24.056392 -4.309952 41.963150 -31.546836 -42.182078 -12.435718 -35.712907 34.298658 22.145444 0.000000 0.000000 0.000000 7.125000 0.000000 0.000000 -7.622466 56.439273 2.146827
-9.346701 15.892139 2.771333 -159.365558 -84.118035 167.554010 0.000000 0.000000 0.000000 -20.362428 -26.929994 -19.387768 1.625703 8.038178 22.830261 0.356424 -9.504373 -11.706842 0.239023 -3.146029 -8.685566 0.000000 0.000000 0.000000 29.572289 2.387470 13.748231 -0.017227 -0.793691 2.181473 -3.880462 -9.949190 -41.481764 -0.123581 2.228398 -6.138801 -0.428080 3.501119 6.864127 2.876203 4.781293 -9.897036 2.533708 2.383707 -15.128385 -2.047873 -2.054961 -21.361565 -4.389710 -1.271387 30.785555 -1.707434 -1.644674 14.101376 0.000000 0.000000 0.000000 4.990583 23.293257 -10.123451 22.102799 -33.090267 6.643061 33.710694 21.074553 -25.771778 0.000000 0.000000 0.000000 -7.125000 0.000000 0.000000 4.681876 60.050134 -1.720788 0.000000 0.000000 0.000000 -23.382786 -3.715921 42.312318 -30.884608 -41.638421 -11.993530 -35.369240 33.919898 22.054634 0.000000 0.000000 0.000000 7.125000 0.000000 0.000000 -7.235644 56.253439 2.005082
-9.186597 15.869809 2.713168 -160.812900 -83.244045 169.285134 0.000000 0.000000 0.000000 -19.167311 -27.119923 -20.605356 1.690025 8.187887 23.286376 0.409533 -9.762114 -12.408084 0.239914 -3.151892 -8.701956 0.000000 0.000000 0.000000 31.124694 4.918745 14.979638 -0.002192 -0.109936 0.302066 -4.326990 -11.203787 -44.079256 -0.050714 1.431449 -3.937154 0.088964 3.631812 6.890721 2.648405 5.001323 -10.000273 1.945382 2.407920 -15.205532 -1.571184 -1.840577 -21.169308 -4.367660 -1.157831 30.827142 -1.757273 -1.537632 14.071554 0.000000 0.000000 0.000000 5.545762 23.171699 -11.517723 22.943942 -34.025549 7.107769 33.968290 20.208606 -25.689390 0.000000 0.000000 0.000000 -7.125000 0.000000 0.000000 5.015920 60.024814 -1.842132 0.000000 0.000000 0.000000 -22.569638 -3.087350 42.426937 -30.200240 -41.063015 -11.541408 -34.975431 33.270918 21.709508 0.000000 0.000000 0.000000 7.125000 0.000000 0.000000 -6.820796 55.765131 1.808727
-9.026695 15.853459 2.651466 -163.137930 -82.427008 171.910988 0.000000 0.000000 0.000000 -18.150882 -27.372770 -21.706006 1.734376 8.289285 23.596205 0.486682 -9.866108 -13.286840 0.243992 -3.178534 -8.776094 0.000000 0.000000 0.000000 32.534480 7.787791 16.307097 -0.006709 0.478626 -1.315279 -4.735454 -12.568067 -46.458182 -0.011956 0.467147 -1.284292 0.524052 3.827424 6.913249 2.227095 5.277818 -10.143157 1.175602 2.452618 -15.311268 -1.188870 -1.722438 -20.838142 -4.071161 -1.248327 30.856726 -1.713768 -1.488953 14.004466 0.000000 0.000000 0.000000 6.503793 23.110319 -13.359395 23.782245 -34.930579 7.582650 34.300126 19.703845 -26.204277 0.000000 0.000000 0.000000 -7.125000 0.000000 0.000000 5.314702 60.686545 -2.036748 0.000000 0.000000 0.000000 -21.545258 -2.247873 42.114863 -29.613600 -40.559219 -11.157778 -34.878953 32.858168 21.273515 0.000000 0.000000 0.000000 7.125000 0.000000 0.000000 -6.754876 55.242213 1.704026
-8.864185 15.843157 2.585569 -165.091748 -81.650786 174.063457 0.000000 0.000000 0.000000 -17.208127 -27.632733 -22.549357 1.756629 8.339658 23.750513 0.580752 -9.897110 -14.275026 0.250228 -3.218871 -8.888691 0.000000 0.000000 0.000000 33.998479 10.810547 17.801379 -0.022792 0.961717 -2.643503 -5.230119 -13.310118 -48.748111 -0.051901 -1.289672 3.548051 0.761145 3.960109 7.030140 1.911680 5.458262 -10.207226 0.648223 2.483477 -15.407388 -0.902491 -1.578589 -20.576913 -3.754462 -1.264782 30.848167 -1.633148 -1.416244 13.940042 0.000000 0.000000 0.000000 7.328991 23.187499 -15.192152 24.749005 -35.944127 8.143073 34.719665 19.261209 -26.662196 0.000000 0.000000 0.000000 -7.125000 0.000000 0.000000 5.741532 61.309963 -2.285238 0.000000 0.000000 0.000000 -20.714101 -1.422897 41.966705 -29.242684 -40.235163 -10.917253 -35.132688 32.886816 21.220936 0.000000 0.000000 0.000000 7.125000 0.000000 0.000000 -7.045640 55.239703 1.777982
-8.700549 15.838894 2.518233 -165.053703 -80.874529 174.156491 0.000000 0.000000 0.000000 -16.001316 -27.941222 -23.199760 1.760260 8.347720 23.775253 0.657660 -10.169195 -15.107109 0.266912 -3.323589 -9.181082 0.000000 0.000000 0.000000 36.125434 14.325668 19.912535 -0.050090 1.440626 -3.962224 -5.984342 -13.606330 -51.641119 -0.330362 -3.654308 10.109637 0.935517 3.933352 7.165547 1.914728 5.450311 -10.170992 0.549216 2.458923 -15.432232 -0.442808 -1.275226 -20.243315 -3.834445 -0.967501 30.504033 -1.675167 -1.238026 13.719638 0.000000 0.000000 0.000000 7.623127 23.090334 -16.299365 25.463643 -36.673789 8.565409 34.721142 18.567967 -26.462672 0.000000 0.000000 0.000000 -7.125000 0.000000 0.000000 5.785538 61.086752 -2.271567 0.000000 0.000000 0.000000 -20.340789 -0.870829 42.431905 -28.993550 -40.014880 -10.756561 -35.050344 32.745680 21.455034 0.000000 0.000000 0.000000 7.125000 0.000000 0.000000 -6.930415 55.490054 1.790621
